<svg width="98" height="569" viewBox="0 0 98 569" fill="none" xmlns="http://www.w3.org/2000/svg">
<path d="M4.30103 29.5887C28.6727 19.1924 48.0376 -16.1628 74.2602 10.7396C81.1991 16.6253 87.8102 22.9009 94.9645 28.5155C98.114 30.986 98.8875 35.6352 96.8195 39.0292C94.053 43.6487 87.3188 44.1682 83.6987 40.2234C74.9772 33.2902 67.1357 25.252 58.2294 18.5635C55.0204 15.5399 51.2122 17.0848 48.0599 19.3277C36.3772 27.8185 25.1316 37.0321 12.2191 43.6941C2.98131 48.715 -4.88001 34.8609 4.30103 29.5887Z" fill="black"/>
<path d="M44.0541 57.4671C46.1785 41.3134 44.2427 24.9541 43.9747 8.73351C43.8327 4.32899 47.9529 0.713961 52.1996 0.792768C56.5918 0.785696 60.2118 4.66867 60.1407 9.00974C60.4004 25.9598 62.4821 43.0729 60.0298 59.9372C58.2809 70.3503 42.5214 67.8792 44.0541 57.4671Z" fill="black"/>
<path d="M52.4788 74.4174C56.6937 73.9201 61.1457 77.0853 61.4624 81.4898C61.7619 94.3269 63.864 107.701 61.1698 120.325C57.3899 129.519 42.8578 123.955 46.0703 114.564C46.4931 106.689 46.1265 98.7183 45.8642 90.837C45.2928 84.6296 44.0767 75.4936 52.4788 74.4174Z" fill="black"/>
<path d="M44.488 168.97C46.1708 159.76 39.1279 135.295 52.7771 135.17C57.1735 135.249 60.7966 138.991 60.7176 143.395C60.5652 152.015 60.798 160.634 60.6546 169.254C60.3585 179.799 44.4257 179.52 44.488 168.97Z" fill="black"/>
<path d="M45.1111 245.921C46.4264 231.962 46.0075 217.906 45.7618 203.906C43.1492 197.832 48.9242 189.554 55.7681 191.909C62.9048 193.898 61.8657 202.004 62.068 207.829C61.9284 221.987 62.9137 236.393 60.6466 250.39C57.5865 260.446 42.3706 256.017 45.1111 245.921Z" fill="black"/>
<path d="M53.2763 263.728C64.5787 264.63 60.6038 278.601 61.2486 286.319C60.4449 294.155 64.8594 308.521 53.0631 309.068C41.6528 308.126 45.7836 293.921 45.0909 286.145C45.8438 278.373 41.608 264.246 53.2763 263.728Z" fill="black"/>
<path d="M45.3944 370.824C46.6844 362.124 47.0461 354.537 47.0041 346.042C47.1304 338.648 42.233 326.377 52.9636 324.624C63.1176 323.795 62.5023 335.889 62.9971 342.953C63.4688 353.751 62.8195 364.764 60.9049 375.394C57.8363 385.511 42.5513 380.945 45.3944 370.824Z" fill="black"/>
<path d="M45.5328 418.471C47.522 409.837 42.0144 391.041 54.7533 390.418C63.7612 390.743 63.0428 400.781 62.4261 407.333C61.5588 417.33 61.3288 427.367 61.9599 437.383C63.0131 447.876 47.1969 449.779 45.9053 439.301C45.4001 432.389 45.2186 425.402 45.5328 418.471Z" fill="black"/>
<path d="M44.2568 516.947C45.5019 507.407 46.2148 497.859 45.9455 488.23C46.8217 479.834 40.7689 463.875 53.5789 462.996C64.3193 463.644 61.1161 476.758 61.9769 484.126C62.6946 495.93 61.7356 507.715 60.2328 519.417C58.57 529.838 42.8118 527.368 44.2568 516.947Z" fill="black"/>
<path d="M43.3106 543.189C48.3027 540.272 54.485 542.057 59.0668 544.949C65.6429 550.464 60.9074 563.729 54.2276 567.453C39.5303 575.354 29.8252 550.199 43.3106 543.189Z" fill="black"/>
</svg>
