<svg width="27" height="569" viewBox="0 0 27 569" fill="none" xmlns="http://www.w3.org/2000/svg">
<path d="M19.1262 512.296C17.0018 528.45 18.9376 544.809 19.2056 561.03C19.3476 565.434 15.2274 569.049 10.9807 568.97C6.58854 568.977 2.96846 565.095 3.03959 560.753C2.77993 543.803 0.698206 526.69 3.15053 509.826C4.89944 499.413 20.6589 501.884 19.1262 512.296Z" fill="white"/>
<path d="M10.7015 495.346C6.48655 495.843 2.03455 492.678 1.7179 488.274C1.41844 475.436 -0.683696 462.062 2.0105 449.439C5.79042 440.244 20.3225 445.808 17.11 455.199C16.6872 463.075 17.0538 471.045 17.3161 478.926C17.8875 485.134 19.1036 494.27 10.7015 495.346Z" fill="white"/>
<path d="M18.6923 400.793C17.0095 410.003 24.0524 434.468 10.4032 434.593C6.0068 434.514 2.38368 430.772 2.46269 426.368C2.61505 417.748 2.38227 409.129 2.52574 400.51C2.82177 389.965 18.7546 390.243 18.6923 400.793Z" fill="white"/>
<path d="M18.0692 323.842C16.7539 337.801 17.1728 351.857 17.4185 365.857C20.0311 371.931 14.2561 380.209 7.41222 377.855C0.275522 375.865 1.31457 367.759 1.11229 361.934C1.25192 347.777 0.266631 333.37 2.53365 319.373C5.5938 309.317 20.8097 313.747 18.0692 323.842Z" fill="white"/>
<path d="M9.904 306.035C-1.39838 305.133 2.57654 291.162 1.93173 283.444C2.73537 275.608 -1.67905 261.242 10.1172 260.695C21.5275 261.638 17.3967 275.842 18.0894 283.618C17.3365 291.391 21.5723 305.517 9.904 306.035Z" fill="white"/>
<path d="M17.7859 198.939C16.4959 207.639 16.1342 215.226 16.1762 223.72C16.0499 231.115 20.9473 243.385 10.2167 245.138C0.0627269 245.968 0.67803 233.874 0.183161 226.81C-0.28847 216.012 0.36078 204.999 2.27539 194.369C5.34403 184.252 20.629 188.818 17.7859 198.939Z" fill="white"/>
<path d="M17.6475 151.292C15.6583 159.926 21.1659 178.722 8.42701 179.345C-0.580857 179.02 0.137502 168.982 0.754219 162.43C1.6215 152.433 1.85146 142.396 1.22039 132.38C0.167205 121.887 15.9834 119.984 17.275 130.462C17.7802 137.374 17.9617 144.361 17.6475 151.292Z" fill="white"/>
<path d="M18.9235 52.8165C17.6784 62.3567 16.9655 71.9045 17.2348 81.5329C16.3586 89.9291 22.4114 105.889 9.60143 106.768C-1.13899 106.119 2.06422 93.005 1.2034 85.6371C0.485648 73.833 1.44467 62.0481 2.94747 50.3464C4.6103 39.9247 20.3685 42.3952 18.9235 52.8165Z" fill="white"/>
<path d="M19.8697 26.5743C14.8776 29.491 8.69525 27.7057 4.11352 24.8141C-2.46264 19.2988 2.27287 6.03412 8.95269 2.31017C23.65 -5.59056 33.3551 19.5641 19.8697 26.5743Z" fill="white"/>
</svg>
