<svg width="92" height="436" viewBox="0 0 92 436" fill="none" xmlns="http://www.w3.org/2000/svg">
<path d="M11.8855 432.967C31.5801 408.416 39.917 389.025 38.5171 357.528C37.253 329.085 23.7449 298.146 13.9015 271.692C1.71441 238.939 -7.81047 174.647 30.9839 155.616C61.1066 140.839 97.1274 162.988 87.3241 197.845C83.5447 211.283 65.6051 218.227 53.1592 212.275C39.7167 205.846 33.2363 186.627 30.135 173.335C21.8061 137.639 55.244 113.857 61.1168 81.5568C66.6036 51.3793 53.0856 28.9699 34.8036 6.11819C33.2376 4.16079 43.6567 5.1633 46.2626 5.1633C55.8156 5.1633 51.5758 3.25336 44.3528 3.25336C39.7074 3.25336 29.8306 0.806343 32.4693 7.07312C34.3729 11.5944 34.8036 21.0979 34.8036 26.1715" stroke="#1C1C1C" stroke-width="5" stroke-linecap="round"/>
</svg>
