<svg width="175" height="150" viewBox="0 0 175 150" fill="none" xmlns="http://www.w3.org/2000/svg">
<path d="M3.0927 51.397C9.95876 18.5889 27.2816 -6.26271 64.6256 6.73391C93.3929 16.7457 110.011 57.1799 87.9178 82.0117C82.6243 87.9613 71.6005 86.4264 65.4554 82.6147C55.7343 76.5849 53.8571 66.7778 57.3157 56.1969C63.5987 36.9758 86.2141 18.6248 107.149 25.8746C139.91 37.2199 154.675 71.806 156.352 104.379C156.686 110.868 151.042 159.201 145.445 132.469C144.429 127.618 141.959 112.98 143.278 117.758C145.465 125.68 146.364 130.222 145.923 138.636C145.835 140.307 144.157 148.972 148.022 146.134C155.937 140.322 164.262 135.148 172.055 129.146" stroke="#1C1C1C" stroke-width="5" stroke-linecap="round"/>
</svg>
