<svg width="118" height="200" viewBox="0 0 118 200" fill="none" xmlns="http://www.w3.org/2000/svg">
<path d="M103.702 197.112C105.407 180.96 107.375 153.599 88.2899 144.875C79.0139 140.635 72.3856 136.121 62.2256 140.155C41.5674 148.357 61.575 178.055 80.5811 171.344C118.655 157.901 126.902 113.466 98.2244 87.5492C84.9604 75.5622 66.2508 70.6129 48.8558 75.4601C40.6835 77.7373 30.2981 84.8135 36.0968 94.8987C49.0014 117.342 82.4626 106.178 88.2424 83.3185C97.5473 46.5165 55.6977 20.956 23.6816 25.2907C23.4936 25.3162 -0.111443 29.5072 2.90724 32.3221C8.8707 37.8832 34.5416 39.8367 26.9393 36.8881C19.4085 33.9672 12.1461 37.0244 4.87428 37.0581C1.49436 37.0737 7.1658 8.56823 7.74495 3.17579" stroke="#1C1C1C" stroke-width="5" stroke-linecap="round"/>
</svg>
