<svg width="147" height="863" viewBox="0 0 147 863" fill="none" xmlns="http://www.w3.org/2000/svg">
<path d="M132.395 230.67L138.12 228.876L138.12 228.876L132.395 230.67ZM64.7804 0.682928C61.8439 -0.852454 58.2187 0.283409 56.6833 3.21995L31.6628 51.0736C30.1274 54.0102 31.2633 57.6354 34.1998 59.1708C37.1364 60.7061 40.7616 59.5703 42.2969 56.6337L64.5374 14.0971L107.074 36.3376C110.011 37.873 113.636 36.7371 115.171 33.8006C116.707 30.864 115.571 27.2388 112.634 25.7034L64.7804 0.682928ZM10.5891 614.227L4.71522 615.451L10.5891 614.227ZM75.4117 426.433L71.5434 421.847L71.5434 421.847L75.4117 426.433ZM138.12 228.876L67.7259 4.20606L56.2748 7.79395L126.669 232.464L138.12 228.876ZM67.8742 859.776L16.463 613.003L4.71522 615.451L56.1264 862.224L67.8742 859.776ZM16.463 613.003C2.38066 545.409 26.4996 475.535 79.28 431.02L71.5434 421.847C15.3927 469.204 -10.2663 543.54 4.71522 615.451L16.463 613.003ZM126.669 232.464C148.122 300.932 126.391 375.588 71.5434 421.847L79.28 431.02C137.823 381.644 161.019 301.958 138.12 228.876L126.669 232.464Z" fill="black"/>
</svg>
